<?xml version="1.0" encoding="UTF-8" standalone="no"?><!DOCTYPE svg PUBLIC "-//W3C//DTD SVG 1.1//EN" "http://www.w3.org/Graphics/SVG/1.1/DTD/svg11.dtd"><svg width="100%" height="100%" viewBox="0 0 2000 2000" version="1.1" xmlns="http://www.w3.org/2000/svg" xmlns:xlink="http://www.w3.org/1999/xlink" xml:space="preserve" xmlns:serif="http://www.serif.com/" style="fill-rule:evenodd;clip-rule:evenodd;stroke-linejoin:round;stroke-miterlimit:1.41421;fill:#565656;"><path id="path4582" d="M505.116,1000c0,-14.799 5.657,-27.857 16.974,-39.172l792.381,-792.383c11.317,-11.316 24.375,-16.974 39.174,-16.974c14.798,0 27.855,5.658 39.172,16.974l85.093,85.093c11.317,11.317 16.974,24.374 16.974,39.173c0,14.799 -5.657,27.856 -16.974,39.173l-668.117,668.116l668.117,668.116c11.317,11.317 16.974,24.374 16.974,39.172c0,14.8 -5.657,27.857 -16.974,39.174l-85.093,85.093c-11.317,11.315 -24.374,16.974 -39.172,16.974c-14.799,0 -27.857,-5.659 -39.174,-16.974l-792.381,-792.383c-11.317,-11.316 -16.974,-24.374 -16.974,-39.172Z" style="fill-rule:nonzero;"/></svg>
